<?xml version="1.0" encoding="utf-8"?>
<!-- Generator: Adobe Illustrator 22.0.1, SVG Export Plug-In . SVG Version: 6.00 Build 0)  -->
<svg version="1.1" id="Layer_1" xmlns="http://www.w3.org/2000/svg" xmlns:xlink="http://www.w3.org/1999/xlink" x="0px" y="0px"
	 viewBox="0 0 260.3 67" style="enable-background:new 0 0 260.3 67;" xml:space="preserve">
<style type="text/css">
	.st0{fill:#EC157F;}
	.st1{fill:#202020;}
</style>
<g>
	<path class="st0" d="M0,67C0,41.7,0,21.4,0,0c10.1,0,18.5,0,28.8,0c33.5,0.1,33.5,50.1,0,50.1H17.9V67C11.9,67,5.9,67,0,67z
		 M28.7,16c-4.2-0.1-6.7,0-10.8,0c0,5.7,0,12.3,0,18h10.8C38.5,34,39.1,16.1,28.7,16z"/>
	<path class="st1" d="M64.7,67c0-25.3,0-45.6,0-67c10.1,0,18.5,0,28.8,0c33.5,0.1,33.5,50.1,0,50.1H82.6V67C76.6,67,70.6,67,64.7,67
		z M93.4,16c-4.2-0.1-6.7,0-10.8,0c0,5.7,0,12.3,0,18h10.8C103.2,34,103.8,16.1,93.4,16z"/>
	<path class="st1" d="M206.4,67c0-25.3,0-45.6,0-67c10.1,0,18.5,0,28.8,0c33.5,0.1,33.5,50.1,0,50.1h-10.9V67
		C218.3,67,212.3,67,206.4,67z M235.1,16c-4.2-0.1-6.7,0-10.8,0c0,5.7,0,12.3,0,18h10.8C244.9,34,245.5,16.1,235.1,16z"/>
	<g>
		<g>
			<g>
				<path class="st1" d="M160.8,67c-18.4,0-33.5-15-33.5-33.5S142.3,0,160.8,0c9.6,0,18.7,4.1,25,11.3c1.3,1.5,1.2,3.7-0.3,5.1
					c-1.5,1.3-3.7,1.2-5.1-0.3c-5-5.6-12.2-8.9-19.7-8.9c-14.5,0-26.3,11.8-26.3,26.3c0,14.5,11.8,26.3,26.3,26.3
					s26.3-11.8,26.3-26.3c0-2,1.6-3.6,3.6-3.6s3.6,1.6,3.6,3.6C194.2,52,179.2,67,160.8,67z"/>
			</g>
		</g>
		<g>
			<path class="st1" d="M155.8,46.5c-0.3,0-0.7-0.1-1-0.3c-0.6-0.3-0.9-1-0.9-1.7V23c0-0.7,0.4-1.3,0.9-1.7c0.6-0.3,1.3-0.4,1.9,0
				l15.8,10.8c0.6,0.3,1,1,1,1.7c0,0.7-0.4,1.4-1,1.7l-15.8,10.8C156.4,46.4,156.1,46.5,155.8,46.5z"/>
		</g>
	</g>
</g>
</svg>
